HIERARCHY
ROOT hips
{
  OFFSET 0 11.86390953 0.3628582958
  CHANNELS 6 Xposition Yposition Zposition Yrotation Xrotation Zrotation
  JOINT spine
  {
    OFFSET 0 0.05383551117999996 0
    CHANNELS 3 Yrotation Xrotation Zrotation
    JOINT chest
    {
      OFFSET 0 0.6394558760401424 0
      CHANNELS 3 Yrotation Xrotation Zrotation
      JOINT neck
      {
        OFFSET 0 2.720089088562982 0
        CHANNELS 3 Yrotation Xrotation Zrotation
        JOINT head
        {
          OFFSET 0 0.37880844870545777 0
          CHANNELS 3 Yrotation Xrotation Zrotation
          JOINT rightEye
          {
            OFFSET -0.42867780714 0.7547055649100001 0.7381831347
            CHANNELS 3 Yrotation Xrotation Zrotation
            End Site
            {
              OFFSET -0.42867780714 0.7547055649100001 0.7381831347
            }
          }
          JOINT leftEye
          {
            OFFSET 0.428676479 0.7547055559999993 0.7381844503
            CHANNELS 3 Yrotation Xrotation Zrotation
            End Site
            {
              OFFSET 0.428676479 0.7547055559999993 0.7381844503
            }
          }
          JOINT jaw
          {
            OFFSET -0.18933892286100001 1.5626303011000007 1.137441874206
            CHANNELS 3 Yrotation Xrotation Zrotation
            End Site
            {
              OFFSET -0.18933892286100001 1.5626303011000007 1.137441874206
            }
          }
        }
      }
      JOINT rightShoulder
      {
        OFFSET -0.6795351508 2.0665205 0
        CHANNELS 3 Yrotation Xrotation Zrotation
        JOINT rightUpperArm
        {
          OFFSET -0.7287400483531672 0 0
          CHANNELS 3 Yrotation Xrotation Zrotation
          JOINT rightLowerArm
          {
            OFFSET -1.9872982039174532 0 0
            CHANNELS 3 Yrotation Xrotation Zrotation
            JOINT rightHand
            {
              OFFSET -2.6451847532219275 0 0
              CHANNELS 3 Yrotation Xrotation Zrotation
              JOINT rightLittleProximal
              {
                OFFSET -0.8008804099999995 -0.09592044000000044 -0.26183688629999996
                CHANNELS 3 Yrotation Xrotation Zrotation
                JOINT rightLittleIntermediate
                {
                  OFFSET -0.2473955153999997 -0.02541697026000067 0.002370178700999967
                  CHANNELS 3 Yrotation Xrotation Zrotation
                  JOINT rightLittleDistal
                  {
                    OFFSET -0.163687229200001 -0.015790700860001117 -0.0004274845300000635
                    CHANNELS 3 Yrotation Xrotation Zrotation
                    End Site
                    {
                      OFFSET -0.163687229200001 -0.015790700860001117 -0.0004274845300000635
                    }
                  }
                }
              }
              JOINT rightRingProximal
              {
                OFFSET -0.8393382799999985 -0.06223833561000025 -0.09213143500000005
                CHANNELS 3 Yrotation Xrotation Zrotation
                JOINT rightRingIntermediate
                {
                  OFFSET -0.3284497260000011 -0.03264224524000103 0.009408593183000052
                  CHANNELS 3 Yrotation Xrotation Zrotation
                  JOINT rightRingDistal
                  {
                    OFFSET -0.19447660429999902 -0.021730899850000318 0.003074347969000052
                    CHANNELS 3 Yrotation Xrotation Zrotation
                    End Site
                    {
                      OFFSET -0.19447660429999902 -0.021730899850000318 0.003074347969000052
                    }
                  }
                }
              }
              JOINT rightMiddleProximal
              {
                OFFSET -0.8473005199999989 -0.06735503500000095 0.10541820299999995
                CHANNELS 3 Yrotation Xrotation Zrotation
                JOINT rightMiddleIntermediate
                {
                  OFFSET -0.3450455799999995 -0.02481901642000084 0.019012570390000032
                  CHANNELS 3 Yrotation Xrotation Zrotation
                  JOINT rightMiddleDistal
                  {
                    OFFSET -0.23542332000000088 -0.025003910029999243 0.0075583457949999905
                    CHANNELS 3 Yrotation Xrotation Zrotation
                    End Site
                    {
                      OFFSET -0.23542332000000088 -0.025003910029999243 0.0075583457949999905
                    }
                  }
                }
              }
              JOINT rightIndexProximal
              {
                OFFSET -0.8008568281999987 -0.09897839600000169 0.29462796
                CHANNELS 3 Yrotation Xrotation Zrotation
                JOINT rightIndexIntermediate
                {
                  OFFSET -0.30524754480000016 -0.024634122809999992 0.02743375304999998
                  CHANNELS 3 Yrotation Xrotation Zrotation
                  JOINT rightIndexDistal
                  {
                    OFFSET -0.23067378950000017 -0.016876459159999913 0.008484125099999983
                    CHANNELS 3 Yrotation Xrotation Zrotation
                    End Site
                    {
                      OFFSET -0.23067378950000017 -0.016876459159999913 0.008484125099999983
                    }
                  }
                }
              }
              JOINT rightThumbProximal
              {
                OFFSET -0.25574064999999935 -0.12833189930000155 0.22385698609999993
                CHANNELS 3 Yrotation Xrotation Zrotation
                JOINT rightThumbIntermediate
                {
                  OFFSET -0.22791743260000086 -0.07103586192999978 0.27385039
                  CHANNELS 3 Yrotation Xrotation Zrotation
                  JOINT rightThumbDistal
                  {
                    OFFSET -0.13610267659999975 -0.03369390969999997 0.14246511509999996
                    CHANNELS 3 Yrotation Xrotation Zrotation
                    End Site
                    {
                      OFFSET -0.13610267659999975 -0.03369390969999997 0.14246511509999996
                    }
                  }
                }
              }
            }
          }
        }
      }
      JOINT leftShoulder
      {
        OFFSET 0.6795338396 2.0665205 0
        CHANNELS 3 Yrotation Xrotation Zrotation
        JOINT leftUpperArm
        {
          OFFSET 0.7287383950230443 0 0
          CHANNELS 3 Yrotation Xrotation Zrotation
          JOINT leftLowerArm
          {
            OFFSET 1.9872997282019604 0 0
            CHANNELS 3 Yrotation Xrotation Zrotation
            JOINT leftHand
            {
              OFFSET 2.6451820781302327 0 0
              CHANNELS 3 Yrotation Xrotation Zrotation
              JOINT leftLittleProximal
              {
                OFFSET 0.8008804099999995 -0.09592306899999814 -0.2618342639000001
                CHANNELS 3 Yrotation Xrotation Zrotation
                JOINT leftLittleIntermediate
                {
                  OFFSET 0.2473981400000007 -0.02542352681000093 0.0023609995859999455
                  CHANNELS 3 Yrotation Xrotation Zrotation
                  JOINT leftLittleDistal
                  {
                    OFFSET 0.1636846068000002 -0.015794634789999318 -0.00043272972159996703
                    CHANNELS 3 Yrotation Xrotation Zrotation
                    End Site
                    {
                      OFFSET 0.1636846068000002 -0.015794634789999318 -0.00043272972159996703
                    }
                  }
                }
              }
              JOINT leftRingProximal
              {
                OFFSET 0.8393409199999996 -0.062242267999998324 -0.0921281570000001
                CHANNELS 3 Yrotation Xrotation Zrotation
                JOINT leftRingIntermediate
                {
                  OFFSET 0.3284471036000003 -0.03264224524000103 0.009405970574000042
                  CHANNELS 3 Yrotation Xrotation Zrotation
                  JOINT leftRingDistal
                  {
                    OFFSET 0.1944779099999996 -0.021732211159998904 0.003073036670000001
                    CHANNELS 3 Yrotation Xrotation Zrotation
                    End Site
                    {
                      OFFSET 0.1944779099999996 -0.021732211159998904 0.003073036670000001
                    }
                  }
                }
              }
              JOINT leftMiddleProximal
              {
                OFFSET 0.8473005200000001 -0.06736028199999788 0.1054214809999999
                CHANNELS 3 Yrotation Xrotation Zrotation
                JOINT leftMiddleIntermediate
                {
                  OFFSET 0.3450455799999995 -0.024824261000000014 0.019013225990000007
                  CHANNELS 3 Yrotation Xrotation Zrotation
                  JOINT leftMiddleDistal
                  {
                    OFFSET 0.2354259489999998 -0.025005222000000327 0.0075590014499999705
                    CHANNELS 3 Yrotation Xrotation Zrotation
                    End Site
                    {
                      OFFSET 0.2354259489999998 -0.025005222000000327 0.0075590014499999705
                    }
                  }
                }
              }
              JOINT leftIndexProximal
              {
                OFFSET 0.8008594516999996 -0.09898495199999946 0.29463124239999994
                CHANNELS 3 Yrotation Xrotation Zrotation
                JOINT leftIndexIntermediate
                {
                  OFFSET 0.30524754480000016 -0.024632811499998963 0.02743047472
                  CHANNELS 3 Yrotation Xrotation Zrotation
                  JOINT leftIndexDistal
                  {
                    OFFSET 0.23067378950000017 -0.016876459159999913 0.008481502700000004
                    CHANNELS 3 Yrotation Xrotation Zrotation
                    End Site
                    {
                      OFFSET 0.23067378950000017 -0.016876459159999913 0.008481502700000004
                    }
                  }
                }
              }
              JOINT leftThumbProximal
              {
                OFFSET 0.25574326469999953 -0.12833321050000013 0.22385764169999997
                CHANNELS 3 Yrotation Xrotation Zrotation
                JOINT leftThumbIntermediate
                {
                  OFFSET 0.22804987480000094 -0.07138466829999968 0.273648441
                  CHANNELS 3 Yrotation Xrotation Zrotation
                  JOINT leftThumbDistal
                  {
                    OFFSET 0.13614857189999907 -0.033867001519998885 0.14238119169999996
                    CHANNELS 3 Yrotation Xrotation Zrotation
                    End Site
                    {
                      OFFSET 0.13614857189999907 -0.033867001519998885 0.14238119169999996
                    }
                  }
                }
              }
            }
          }
        }
      }
    }
  }
  JOINT rightUpperLeg
  {
    OFFSET -0.9749898906000001 -1.8495733739999998 0
    CHANNELS 3 Yrotation Xrotation Zrotation
    JOINT rightLowerLeg
    {
      OFFSET 0 -4.1566544686813165 0
      CHANNELS 3 Yrotation Xrotation Zrotation
      JOINT rightFoot
      {
        OFFSET 0.14539718599999998 -4.225553926 -0.3666210900000001
        CHANNELS 3 Yrotation Xrotation Zrotation
        JOINT rightToes
        {
          OFFSET 0.1706738473 -0.9584117400000015 1.0093348617
          CHANNELS 3 Yrotation Xrotation Zrotation
          End Site
          {
            OFFSET 0.1706738473 -0.9584117400000015 1.0093348617
          }
        }
      }
    }
  }
  JOINT leftUpperLeg
  {
    OFFSET 0.9749898906000001 -1.8495733739999998 0
    CHANNELS 3 Yrotation Xrotation Zrotation
    JOINT leftLowerLeg
    {
      OFFSET 0 -4.156653488267941 0
      CHANNELS 3 Yrotation Xrotation Zrotation
      JOINT leftFoot
      {
        OFFSET -0.14537357999999995 -4.225555399999999 -0.36661124279999996
        CHANNELS 3 Yrotation Xrotation Zrotation
        JOINT leftToes
        {
          OFFSET -0.17066467000000002 -0.9584157000000019 1.0093348617
          CHANNELS 3 Yrotation Xrotation Zrotation
          End Site
          {
            OFFSET -0.17066467000000002 -0.9584157000000019 1.0093348617
          }
        }
      }
    }
  }
}
MOTION
Frames: 4
Frame Time: 0.03333333333333333
-0.057495713233947754 -0.31902198727539144 -0.5666471719741821 3.1996475315134987 1.0191444319112457 -0.5677033804479511 -0.9536842264479938 19.037274208917253 -1.461072965780378 -0.20224803034544406 2.446670970521978 0.8241736269442814 1.022278459669553 17.48918747733444 1.6932613836902195 -0.6434617859934278 10.811675638270845 3.482606806689514 0 0 0 0 0 0 0 0 0 -2.4691581404983176 0.48739979990221327 6.192044592939752 20.664190466568694 3.425557482363759 35.09182633336386 9.53529935647887 0.01023438152018662 -0.12260527516263063 20.576751577530857 22.061136665552457 -3.096974772507592 -1.2760450801777212 0.13170846803074188 12.358475378285522 -3.7613566179078384 1.2153150785466937 37.830154647269815 -3.0653313299355136 0.7193895258383239 28.719187045558975 -2.1487024284892273 0.3820142700995765 20.324905123804054 -3.801687559490338 1.2791788211862332 37.277219138649954 -2.7836376056183902 0.6596895599696202 26.404328036444355 -2.4497074678596484 0.5012045528659715 22.60694567626493 -3.208966747181891 0.9239060468293672 31.95075185092207 -3.326082664552665 0.9363234727985759 31.82711935239939 -2.2474059184535085 0.4191847219039448 20.957044882362208 -3.226800217812202 0.9113366733210404 31.457867097307343 -2.3494980166778903 0.45543567340335295 22.038170309874033 -13.05075297510513 -1.7197646407798202 -7.503100601830399 -16.363929287330638 4.871872090541424 -1.931377993378512 -7.793788704597753 -0.7733663157817279 -2.6745475797417697 -38.12046862170584 9.38586253022996 -7.040576241332754 19.720447057740483 10.384152035538913 -48.32918816078086 -34.68759150132482 0.13147969611079335 0.4212325788499843 -0.9256646806288154 2.5739499171435964 2.4320628334528984 6.711990177820077 2.764700046187742 -27.89192904512389 -0.28451927052957865 1.5029211103642133 -39.16189470542435 3.0164089457748373 0.9073531041157358 -29.64076428871269 2.8109315822656136 0.6777338542741654 -27.21975547697463 3.856632484704623 1.355022822896454 -38.69294110911519 3.694158889040543 1.2292771344832008 -36.787324850168254 2.743472052465828 0.6437691733008234 -26.496557639485314 2.939966130075876 0.7440121779922739 -28.442519574620288 2.8697430434728273 0.7078157797567267 -27.70682266564994 2.433028373469606 0.5003593913959844 -23.28516544453404 3.050734435024926 0.8046660644936905 -29.527331480737292 1.6272110034197529 0.22053207828138693 -15.375556781055215 12.667805991660016 -1.4667686250983825 6.999061895430813 15.380469034940592 4.139352842545666 2.1578281374636727 9.193302865412077 -0.07762999951669086 3.0942251374925345 -6.415878582629211 -11.120976380666235 -4.553778936368533 -9.833741438219546 23.36695501012759 3.9190540854285847 -16.745131102535833 -11.93012940916741 3.4739072974339154 -0.000012037146367718362 -0.34349021649541517 -8.027343441376901e-7 9.734618274948925 -13.548090218213332 3.4337970106730578 -1.8554998802541738 23.63956329425964 1.1428136096582984 0.7095720005078638 -11.218250356036197 -4.7823722760450025 9.488578805646303e-7 3.454701956121328e-7 8.415879489338464e-7
-0.05413240194320679 -0.3145931237500008 -0.5478962063789368 3.1536695612186225 0.9228160632301653 -0.562290625455586 -0.9153111339606207 18.531040549626688 -1.464421958712039 -0.19238757379640253 2.469658634905946 0.8117175771207921 0.36897712602815746 17.43290356932892 1.6016050247299323 -2.724252025176531 10.812839503111805 4.153581766712194 0 0 0 0 0 0 0 0 0 -2.763273958668787 0.4652695956075762 6.185762163544782 20.213090778383165 3.7523296419287004 35.74357891335901 9.60997525686835 0.010394109732033219 -0.12357422599024105 19.7820398481138 22.89135836873938 -3.5776140527668145 -1.479368605121001 0.17779277746688257 14.274384686211722 -3.8313121566643247 1.267610319469447 38.63108789177678 -3.0926092339463533 0.7338805106457514 29.002692246653336 -2.3111386850244355 0.44422789467608564 21.92272717854807 -3.863135875592952 1.3266633689408254 37.989415946999586 -2.8060307588815223 0.6709504196366588 26.634333218174618 -2.5989129208769812 0.5672665632775388 24.105498045550096 -3.2668598113365483 0.9599435800928939 32.57677584077152 -3.342782958126383 0.9466995041440648 32.00757577521739 -2.400399760154052 0.48064647618572864 22.471439281743052 -3.2726741171323224 0.9395567199261947 31.95213064906093 -2.368515986180291 0.46318519891565774 22.22667916026781 -13.050449049737509 -1.7192300444740152 -7.503199236511557 -16.36386805584864 4.872201128479902 -1.9321576515450782 -7.793788704597753 -0.7733663157817279 -2.6745475797417697 -37.83933891942434 9.038674108263232 -6.884937831622113 20.153755081882046 11.419045346485738 -48.24334254995813 -34.42830522893101 0.129587555377375 0.4184794256143289 -2.8815582733670815 0.42770628263379046 3.403593406628832 6.705832979725875 2.7350970009732936 -27.577996174590393 -0.37161489457644353 1.4283526653771803 -38.09923834155213 2.866340578224273 0.8182281248694141 -28.02180286235799 2.7746333798323013 0.6595169261709055 -26.74951293009501 3.7848920622238373 1.2984375697028114 -37.84555658475162 3.6102160197710162 1.1676003719541674 -35.82122283468498 2.687775464118665 0.616595275987695 -25.879736635720654 2.8552036528147537 0.6989692177231905 -27.551508485028112 2.772781075032527 0.6579726143811251 -26.694734797454448 2.3566541471887543 0.46816163633815067 -22.515549707740792 2.9922030850936845 0.7718436854978231 -28.904477972299155 1.5180780059159018 0.19161455085789142 -14.326669367628616 12.667805991660016 -1.4667686250983825 6.999061895430813 15.380469034940592 4.139352842545666 2.1578281374636727 9.193302865412077 -0.07762999951669086 3.0942251374925345 -6.38028260642602 -10.811623486105844 -4.550843377727838 -9.845285334950342 23.146140887819 3.867170005741925 -16.750452341987838 -11.903923220472905 3.538703481717704 -0.000020787860005451865 -0.3700307119137511 0.0000018635322761804839 9.810378601550925 -13.226535570565042 3.469438032280398 -1.8857329319769742 23.431963085463785 1.0950511386954132 0.708136700153901 -11.239248751916001 -4.76269702594906 0.0000024200674673523697 -0.000018031644758253424 0.0000016764224352792601
-0.05293644592165947 -0.3134325021069344 -0.5403199195861816 3.157626713194379 0.8767801929269093 -0.5408460425745069 -0.8764702092783389 18.317449061594115 -1.4918753661096615 -0.18115688641886968 2.475658352434775 0.8271410905922368 0.10729895394263528 17.401757356837273 1.572079845853579 -3.5141671915152557 10.819461189020265 4.3803245216025966 0 0 0 0 0 0 0 0 0 -2.847698939685845 0.4611464812061798 6.213560711292931 20.02969766284368 3.5839478852125772 36.31531248120653 9.561728806175557 0.010295521385894036 -0.12293927332393544 19.537841106396925 23.379410869555496 -3.673954752836738 -1.630779294510533 0.21678852038474167 15.711127955916123 -3.893664603544129 1.315547376174717 39.352318114076795 -3.1346236295707453 0.7565013424896092 29.44068180011674 -2.4101760248001964 0.4847379580525248 22.90544472094381 -3.9074151847224092 1.3616447378370442 38.507188996527105 -2.8365050337913607 0.6864674569908915 26.94827373605821 -2.663688365485308 0.5974148148885455 24.76153867169957 -3.297288377012435 0.9792309540218916 32.90723592601016 -3.3577840279912663 0.9561062916427805 32.17011714071923 -2.446507461927756 0.5000977531627682 22.93117051456493 -3.289313182374196 0.9499015938893471 32.131967604787114 -2.3801029729624537 0.4679255066855749 22.341601331101575 -13.050318244982819 -1.7190102055333076 -7.503225042537617 -16.363817760615955 4.8723472248037005 -1.9325110761196687 -7.793788704597753 -0.7733663157817279 -2.6745475797417697 -37.666099590415946 8.877904250905937 -6.814026320307508 20.139226304329295 11.735848277486877 -48.3801959205559 -34.223622206905205 0.1281063077165213 0.4162865963446425 -4.126088781799995 -0.5451654308121936 3.8789034130878886 6.725319866488326 2.7698729030988662 -27.86225712569461 -0.3714284198689695 1.4285012681707108 -38.1015229425608 2.8448910361651496 0.8059540025325165 -27.79249137786463 2.783991433357289 0.6642414911605445 -26.829504102780557 3.7760773149611633 1.2915995508113123 -37.7419513678157 3.5944460603441892 1.1562601395534502 -35.64093944882477 2.6727764020619103 0.6093542741078644 -25.7174207859916 2.8346176733176462 0.6882938636163333 -27.33625517271329 2.7498703213677955 0.6465073455984984 -26.45688859581479 2.3218403053699057 0.4538725780885224 -22.166070776290262 2.9726456158022376 0.7610767431616319 -28.697227768007462 1.4884012497741728 0.1841009155131447 -14.042280847476835 12.667805991660016 -1.4667686250983825 6.999061895430813 15.380469034940592 4.139352842545666 2.1578281374636727 9.193302865412077 -0.07762999951669086 3.0942251374925345 -6.388592947907941 -10.699139251803368 -4.578975869034865 -9.839419414297623 23.099700935648922 3.8564605041584814 -16.748095610233598 -11.917244579938528 3.5689399402161333 -0.000007329394345481252 -0.36554331857934497 -1.6497802481417128e-8 9.825864105841525 -13.095248278368492 3.460312064405138 -1.8966356146019483 23.36298932196825 1.0857803960360075 0.7082327725977037 -11.253408125488521 -4.759063152431121 8.72620341072074e-7 -0.00008925035160702881 0.000002977157751584048
-0.05109826847910881 -0.31292228634765706 -0.528511643409729 3.249396598597011 0.7735019714293273 -0.47908983149619877 -0.7728115418663625 17.981505032021676 -1.5626109177922023 -0.151113916243928 2.47662786387193 0.8955146427670498 -0.28124072781396214 17.348158704476297 1.5109859626893691 -4.641086587989122 10.856279493748367 4.695997082979744 0 0 0 0 0 0 0 0 0 -2.898358138656271 0.46560770112726096 6.3368586659903565 19.74333001838842 2.6591108508568215 37.89881844711915 9.286447234956057 0.0097145650963463 -0.11942392035471953 19.351663536207138 24.140572877414456 -3.65254253156785 -1.9412806200291197 0.3096692645585618 18.688858253770523 -4.020694043045565 1.4171327551295538 40.84384694643259 -3.2211702498621437 0.8044430475024309 30.348852495915335 -2.587552694849048 0.5623459733150367 24.683614712649245 -3.985675642162048 1.425071770084108 39.431057382384296 -2.891480243494275 0.7149866971114193 27.516914486601475 -2.7413400968132864 0.6347518018423123 25.552504579114842 -3.333795735846853 1.0027063036681028 33.30568120759193 -3.375847545976645 0.967499158257799 32.366052016395194 -2.4593533553183864 0.5055995757060457 23.059304491523825 -3.293867532099332 0.9527776066912539 32.18148175973627 -2.3833394896407256 0.4692505009746062 22.373626291728492 -13.050108754667384 -1.7186367249625918 -7.503294483759988 -16.363751309113145 4.872589719065206 -1.933098871373685 -7.793788704597753 -0.7733663157817279 -2.6745475797417697 -37.25977814979313 8.593982416786242 -6.694359792335302 19.724536157894118 11.990682180010475 -48.9497297628306 -33.727299243463264 0.12452569240388159 0.4109481575802965 -6.656350134533535 -1.5144500906883214 4.643400642921498 6.777212691335273 2.8727907319389967 -28.728791106410842 -0.32963757782805264 1.4639410693051496 -38.609331168883834 2.862542398176461 0.8160456574796532 -27.98119477047093 2.8194756832884753 0.6823599257347887 -27.193529281204093 3.7855132391554465 1.2989310709142836 -37.85296570338086 3.5935477488146845 1.155609858585864 -35.63068250030127 2.6484985585934897 0.5977731525063266 -25.46522652410559 2.816614163302944 0.6790202611594619 -27.148291305227044 2.7351502927732025 0.6392118708296465 -26.30427598833139 2.2504950904457286 0.4254138101818035 -21.452701557466845 2.9423569971257106 0.7445403882791818 -28.377018284465752 1.4603745219812077 0.17717856442274957 -13.774078426513285 12.667805991660016 -1.4667686250983825 6.999061895430813 15.380469034940592 4.139352842545666 2.1578281374636727 9.193302865412077 -0.07762999951669086 3.0942251374925345 -6.435607911842397 -10.524482121336598 -4.668192368370133 -9.813497558198547 23.110481400163394 3.8501123486672317 -16.78501780323038 -11.986006538259042 3.640798583328789 0.000003199603725704565 -0.3382047038086453 7.09688347441612e-7 9.814493948452231 -12.884832259241177 3.405353185251461 -1.952447077664065 23.30046540915946 1.086117564855744 0.7099199195316188 -11.291939494963646 -4.759046198351352 -0.000002507283874494339 -0.00003962623378888318 -3.945455182361786e-7
